<?xml version="1.0" encoding="utf-8"?>
<!-- Generator: Adobe Illustrator 25.2.3, SVG Export Plug-In . SVG Version: 6.00 Build 0)  -->
<svg version="1.1" id="Layer_1" xmlns="http://www.w3.org/2000/svg" xmlns:xlink="http://www.w3.org/1999/xlink" x="0px" y="0px"
	 viewBox="0 0 980 249" style="enable-background:new 0 0 980 249;" xml:space="preserve">
<style type="text/css">
	.st0{fill:#FFFFFF;}
	.st1{fill:#7B113A;}
</style>
<path class="st0" d="M751.2,171.4c-4.4,0.3-8.8,0.9-13.2,0.7c-34.5-1.8-63.2-26.9-70.3-60.8c-2.5-12.1-2.2-24.4-3.1-36.6
	c-0.7-9.7-2.7-19.1-6.7-28c-4.4-9.8-10.9-17.7-21.8-20.5c-4.5-1.2-9.4-1.2-14.5-1.8c1.1-0.8,2.2-1.7,3.3-2.5
	c11.4-7.6,24.1-12.2,37.4-15.3c17.2-4,34.4-3.9,51.5,0.4c14.1,3.6,26,11.2,36,21.5c10.5,10.8,20.4,22.3,30.4,33.6
	c7.7,8.7,15.8,17,25.5,23.6c11.8,8.1,24.7,12.7,39.1,13c0.5,0,1,0,1.5,0.1c0.2,0,0.3,0.2,0.4,0.3c-10.9,8.5-31.9,14.2-49.5,0.9
	c-3.3-2.5-6.4-5.4-9.7-8c-4.2-3.5-9-5.7-14.7-5.8c-10.5-0.1-16.2,7.3-13.3,17.5c3.8,13.1,11.7,23.2,22.6,31.1
	c12.5,9.1,26.8,13.2,42,14.7c12.2,1.1,24.2,0.6,35.9-2.9c0.8-0.2,1.7,0,2.5-0.1c0.1,0.3,0.2,0.6,0.3,0.8c-2.1,1.8-4.3,3.5-6.4,5.3
	c-11.9,10.2-25.6,16.5-41.2,18.7c-11.1,1.6-21.3-0.8-30.1-7.6c-5.2-4-9.9-8.8-14.3-13.7c-7-7.6-13.5-15.6-20.4-23.4
	c-4.6-5.2-9.8-9.7-16.9-10.9c-2.6-0.5-5.5-0.5-8.1-0.1c-10.5,1.5-15.8,9.6-12.7,19.7c5.5,18.1,17.1,30,36,34.2
	c0.8,0.2,1.5,0.4,2.2,0.6c0.1,0,0.1,0.1,0.2,0.2C751.2,170.7,751.2,171,751.2,171.4z M662.1,17.9c3.1,4.5,8.2,6.4,12.8,5.1
	c3.7-1,5.8-3.5,6.1-7.8C674.7,16.2,668.5,17,662.1,17.9z"/>
<path class="st0" d="M694.3,165.9c1,0.3,2.2,0.5,3.1,1.1c8.5,4.7,17,9.5,26.5,12.1c13.3,3.6,26.4,3.3,39.2-2c7.3-3,14.7-3.8,22,0.2
	c0.4,0.2,0.8,0.5,1.7,1.1c-2.2,0.5-3.8,0.9-5.4,1.3c-1.6,0.4-3.2,0.9-4.7,1.5c-2.3,0.9-4.1,2.4-4.2,5.1c-0.1,2.7,1.6,4.3,3.8,5.3
	c6,2.8,12.5,3.4,19.1,3.8c6.4,0.4,12.8,1,19.1,2.1c7.1,1.3,13.2,5.1,18.8,9.7c1.1,0.9,1.8,2.1,2.7,3.2c-0.1,0.2-0.3,0.4-0.4,0.6
	c-1.5-0.3-3-0.5-4.4-0.9c-12.4-3.9-24.9-3.6-37.6-1.6c-5.8,0.9-11.6,1.7-17.4,2.2c-14.1,1.1-27.3-2.1-39.8-8.5
	C719.6,193.6,704.9,182.1,694.3,165.9L694.3,165.9z"/>
<path class="st0" d="M924,103.6c-0.6-1.3-0.9-2-1.3-2.6c-6.7-13.6-17.4-18.4-32.1-14.5c-8,2.1-16,5-24.1,5.6
	c-30.2,2.4-56.7-5.9-77.1-29.5c-0.7-0.9-1.4-1.8-2.1-2.7c0.1-0.2,0.3-0.4,0.4-0.6c0.8,0.5,1.6,0.9,2.4,1.4
	c11.1,7.8,23.3,13,36.8,14.9c12.9,1.8,25.4,0.2,37.9-3.3c7.5-2.1,15.1-4.4,22.7-5.1c20.3-1.8,36.6,13.7,36.6,34.1
	C924.1,101.8,924,102.4,924,103.6z"/>
<path class="st0" d="M843.7,173.4c10.3-3.2,17.3-10.6,24.3-18c4.9-5.2,9.8-10.3,15.2-14.9c11.4-9.7,24.8-12.1,39.2-9.8
	c4.7,0.7,8.9,2.5,13.2,6.2c-3.7-0.3-6.6-0.4-9.5-0.7c-5.7-0.6-10.3,1.3-14.2,5.4c-2.8,3-5.6,6-8.3,9.1
	c-11.8,13.8-27.2,20.4-44.8,22.4c-5,0.6-10,0.8-15.1,1.2C843.8,174.1,843.7,173.8,843.7,173.4z"/>
<path class="st0" d="M809.4,134.5c1.2,0.1,2.4,0.2,3.6,0.5c11.3,2.2,21.2-0.8,30.9-6.8c7-4.4,14.3-8.6,22-11.4
	c16.4-6,32.7-5.8,48.1,3.5c0.7,0.4,1.3,0.8,2,1.3c0.2,0.2,0.4,0.4,0.9,1.1c-1.3-0.1-2.2,0-3.1-0.2c-14.7-2.9-28.5-1.2-41.5,7.2
	c-17.2,11.2-36.2,13-56,8.4c-2.5-0.6-4.8-1.8-7.1-2.7C809.2,135,809.3,134.8,809.4,134.5z"/>
<path class="st0" d="M767.7,34.8c16-0.4,30.1,2.6,42.5,11.7c3.3,2.4,6.6,4.9,9.8,7.4c8.6,6.7,18.1,9.1,28.8,6.9
	c0.5-0.1,1-0.2,1.4-0.2c0.5,0,1,0,1.5,0c-1.8,2-6.9,4.1-12,4.7c-15.9,1.9-30.8-1.7-44.8-9c-9.4-4.9-17.6-11.5-25.2-18.9
	C769.1,36.8,768.7,36,767.7,34.8z"/>
<path class="st0" d="M917.5,151.1c9-7.4,21.9-8.2,31.6-2.2c2.1,1.3,4.2,2.9,6,4.7c5.1,5.1,10.2,9.9,17.6,11.7
	c-2.4,2.7-7.1,4.5-12.3,4.7c-7,0.3-13.3-1.6-18.5-6.4c-0.8-0.7-1.6-1.4-2.3-2.2C933.8,155,926.6,151.5,917.5,151.1z"/>
<path class="st0" d="M808.5,215.1c18.3-1.9,33.3,3.9,41.8,19.1c1.7,3,4.7,5.3,7.7,8.6c-3.8-0.7-7.3-0.7-10.2-1.9
	c-4.2-1.8-8.7-3.9-12-7C827.6,226.2,819.8,218.1,808.5,215.1z"/>
<path class="st1" d="M694.4,165.9c0-0.1-0.1-0.3-0.2-0.4C694.3,165.6,694.3,165.7,694.4,165.9C694.3,165.9,694.4,165.9,694.4,165.9z
	"/>
<g>
	<path class="st0" d="M25,152.7H12.6V52.6h40.2c9.7,0,17.3,2.9,22.9,8.7s8.4,13,8.4,21.5s-2.8,15.7-8.5,21.5
		c-5.7,5.8-13.3,8.7-22.9,8.7H25V152.7z M51.3,101.8c5.9,0,10.7-1.8,14.4-5.3c3.7-3.6,5.6-8.1,5.6-13.7c0-5.6-1.8-10.2-5.6-13.7
		c-3.7-3.6-8.5-5.3-14.4-5.3H25v38.1L51.3,101.8L51.3,101.8z"/>
	<path class="st0" d="M184,152.7h-12.4v-45.9h-58.5v45.9h-12.4V52.6h12.4v43.1h58.5V52.6H184V152.7z"/>
	<path class="st0" d="M253,154.5c-14.7,0-26.6-4.9-35.8-14.7s-13.8-22.2-13.8-37.1s4.6-27.2,13.8-37.1S238.3,51,253,51
		c14.6,0,26.5,4.9,35.8,14.7c9.2,9.8,13.9,22.2,13.9,37.1s-4.6,27.2-13.9,37.1C279.5,149.6,267.6,154.5,253,154.5z M253,143.4
		c11,0,19.9-3.8,26.6-11.5s10.1-17.4,10.1-29.2c0-11.9-3.4-21.7-10.1-29.2c-6.8-7.6-15.6-11.4-26.6-11.4c-11.1,0-20,3.8-26.7,11.4
		s-10.1,17.3-10.1,29.2c0,11.8,3.4,21.5,10.1,29.2C233,139.5,241.9,143.4,253,143.4z"/>
	<path class="st0" d="M387.7,152.7h-65.6V52.6h65.5v11.1h-53.1V96h52v11.1h-52v34.5h53.1L387.7,152.7L387.7,152.7z"/>
	<path class="st0" d="M490.3,152.7h-12L420,72.9v79.8h-12.5V52.6h12.8l57.6,78.2V52.6h12.5V152.7z"/>
	<path class="st0" d="M526.2,152.7h-12.5V52.6h12.5V152.7z"/>
	<path class="st0" d="M633.7,152.7h-15l-32-42.6l-32,42.6h-15.2l39-51.3l-36.8-48.8h15.2l29.7,40.1l29.5-40h15.2l-36.6,48.6
		L633.7,152.7z"/>
</g>
<g>
	<path class="st0" d="M368.7,206.1h-4.8l-3-7.4h-16.6l-3,7.4h-4.8l13.4-33.4h5.1L368.7,206.1z M359.7,195l-7-17.9l-7.1,17.9H359.7z"
		/>
	<path class="st0" d="M390.1,206.1h-4.1v-33.4h4.1V206.1z"/>
	<path class="st0" d="M435,206.1h-4.9l-8.5-13.2h-6.6v13.2h-4.1v-33.4h13.4c3.1,0,5.6,0.9,7.5,2.8s2.9,4.3,2.9,7.3
		c0,2.9-0.8,5.1-2.5,6.9c-1.7,1.7-3.7,2.6-6.1,2.9L435,206.1z M423.7,189.2c2,0,3.6-0.6,4.8-1.8c1.2-1.2,1.9-2.7,1.9-4.6
		c0-1.9-0.6-3.4-1.9-4.6c-1.2-1.2-2.8-1.8-4.8-1.8h-8.8v12.8L423.7,189.2L423.7,189.2z"/>
	<path class="st0" d="M473.7,206.1h-19.6v-33.4h4.1v29.6h15.5V206.1z"/>
	<path class="st0" d="M496.6,206.1h-4.1v-33.4h4.1V206.1z"/>
	<path class="st0" d="M544.9,206.1h-4l-19.5-26.6v26.6h-4.2v-33.4h4.2l19.2,26.1v-26.1h4.2V206.1z"/>
	<path class="st0" d="M587.5,206.1h-21.8v-33.4h21.8v3.7h-17.7v10.8h17.3v3.7h-17.3v11.5h17.7V206.1z"/>
	<path class="st0" d="M617.8,206.7c-5.4,0-9.7-1.8-12.8-5.3l2.5-3.1c2.8,3.2,6.3,4.8,10.5,4.8c2.7,0,4.7-0.6,6-1.7s1.9-2.5,1.9-4
		c0-1.2-0.4-2.1-1.1-2.9s-1.7-1.4-2.8-1.9c-1.2-0.4-2.4-0.9-3.8-1.2s-2.8-0.8-4.2-1.2s-2.7-1-3.8-1.6c-1.2-0.6-2.1-1.5-2.8-2.7
		c-0.7-1.2-1.1-2.6-1.1-4.1c0-2.7,1.1-5,3.2-6.7c2.2-1.7,4.9-2.6,8.2-2.6c5,0,8.9,1.6,11.8,4.6l-2.5,3.1c-2.4-2.7-5.7-4-9.7-4
		c-2,0-3.6,0.5-4.9,1.5s-1.9,2.3-1.9,3.8c0,1.2,0.5,2.1,1.5,2.9c1,0.8,2.2,1.3,3.7,1.7s3,0.8,4.8,1.4s3.3,1.1,4.8,1.8s2.7,1.6,3.7,3
		c1,1.4,1.5,3,1.5,4.9c0,2.7-1,5.1-3,6.9S621.9,206.7,617.8,206.7z"/>
</g>
</svg>
